<svg width="140" height="36" viewBox="0 0 140 36" fill="none" xmlns="http://www.w3.org/2000/svg">
<path d="M11.1945 16.8978C11.356 17.229 11.4213 17.6456 11.3495 18.0772C11.2777 18.509 11.0691 18.9563 10.8168 19.3691C10.6348 19.6669 10.4299 19.9466 10.2189 20.2215C9.67644 20.8341 9.36806 21.6648 9.4097 22.5768C9.53896 24.388 11.0492 25.9092 12.8492 26.0407C14.7159 26.1262 16.2485 24.7076 16.2347 22.8116C16.2284 21.7824 15.7819 20.8421 15.0778 20.1753C14.8563 19.9459 14.6386 19.7069 14.4379 19.4272C13.9529 18.7512 13.5343 17.8387 13.9655 17.0323C14.2473 16.505 15.9393 15.0529 16.5312 14.7937C17.7244 14.2714 18.7454 14.8361 19.5701 15.6964C20.23 16.3852 21.15 16.8207 22.1559 16.8276C24.041 16.8498 25.4536 15.3102 25.3675 13.4232C25.2381 11.6119 23.7277 10.0908 21.9278 9.95924C19.7932 9.86157 19.7273 11.179 18.1864 11.8237C16.86 12.3791 15.3245 11.2854 14.6046 10.2417C13.7904 9.06099 14.5748 7.97541 15.3785 7.11106C15.9709 6.61295 16.3474 5.96655 16.366 5.29762C16.4093 4.10057 15.1279 3.31593 13.5485 3.45215C12.0153 3.65913 10.5987 4.69765 10.3276 5.85846C10.2026 6.50652 10.4182 7.08174 10.8758 7.48144C11.6061 8.22874 12.0981 8.89331 11.4505 9.95074C11.0399 10.6216 9.90724 12.0113 9.10575 12.262C7.87999 12.6451 7.55569 11.9519 6.79731 11.2906C6.41171 10.9326 5.89867 10.7737 5.33114 10.8797C4.17742 11.1508 3.14356 12.5748 2.93565 14.1175C2.79817 15.7069 3.57599 16.9973 4.76564 16.9555C5.39317 16.9386 6.00105 16.601 6.48382 16.0632C7.09473 15.5065 7.37917 14.7378 8.28559 14.6358C9.55892 14.4927 10.688 15.86 11.1945 16.8978Z" fill="url(#paint0_linear_2325_5401)"/>
<path d="M46.86 8.74855V27.2515C46.86 27.5846 46.5901 27.8562 46.2591 27.8562H42.209C41.8781 27.8562 41.6082 27.5846 41.6082 27.2515V8.74855C41.6082 8.41551 41.8781 8.14384 42.209 8.14384H46.2591C46.5901 8.14384 46.86 8.41551 46.86 8.74855ZM9.09626 1.98889C10.0782 1.59219 10.6462 1.61066 10.2971 2.08364C9.93169 2.68055 8.66304 3.56299 7.54183 3.98364C6.54247 4.4293 6.19271 4.24686 6.66973 3.64354C7.14342 3.1344 8.20048 2.41355 9.09626 1.98889ZM6.44923 27.1246C7.40435 27.6417 8.27797 28.6352 8.57799 29.6093V29.6095L8.58015 29.6165C8.59841 29.6751 8.61473 29.7339 8.62893 29.7922C8.64729 29.8566 8.66226 29.9187 8.67395 29.979C8.79658 30.5884 8.57876 30.9858 8.14594 31.1205L8.14551 31.1207L8.13815 31.1229C7.85493 31.2104 7.48015 31.1856 7.04685 31.0332C5.99658 30.5851 4.87259 29.4544 4.43709 28.4105C4.0279 27.2375 4.5382 26.4903 5.66807 26.8168C5.91083 26.8744 6.15674 26.9704 6.39794 27.0973L6.4014 27.0991L6.44923 27.1246ZM13.5425 32.5418C12.0095 32.3321 10.6078 31.2982 10.3375 30.1373C10.0834 28.8155 11.2451 27.7983 12.9855 27.9531C14.7956 28.0573 16.3268 29.3328 16.3629 30.7007C16.4043 31.8979 15.1362 32.6828 13.5425 32.5418ZM21.9401 26.0434C20.0651 26.1305 18.5349 24.7093 18.5565 22.8122C18.5697 20.8352 20.2064 19.1904 22.171 19.1799C24.056 19.1607 25.4663 20.7027 25.3817 22.5814C25.2512 24.3928 23.7323 25.9194 21.9401 26.0434ZM21.2287 32.5477C19.6491 32.684 18.3679 31.8994 18.4111 30.7023C18.4492 29.3346 19.9824 28.0613 21.8024 27.9557C23.5432 27.802 24.7043 28.82 24.4495 30.1415C24.1784 31.3023 22.7617 32.3408 21.2287 32.5477ZM29.1091 9.18315C28.8664 9.12569 28.6204 9.02958 28.3791 8.90264L28.3761 8.9009L28.3279 8.87524C27.3728 8.35809 26.499 7.36461 26.1992 6.39052V6.3903L26.197 6.38333C26.1789 6.32473 26.1625 6.26606 26.1483 6.20764C26.1299 6.14325 26.1149 6.08121 26.1033 6.02083C25.9807 5.4115 26.1984 5.0142 26.6313 4.87932L26.6317 4.87915L26.6392 4.87697C26.9223 4.78949 27.2971 4.81419 27.7305 4.96658C28.7807 5.41473 29.9047 6.54535 30.3402 7.58923C30.7493 8.76228 30.2391 9.50958 29.1092 9.18298L29.1091 9.18315ZM30.0113 16.9683C28.6524 16.9317 27.3851 15.3905 27.2819 13.5689C27.1224 11.8076 28.1397 10.6484 29.4459 10.8923C30.5996 11.1634 31.6335 12.5877 31.8413 14.1303C31.9789 15.7195 31.2011 17.0101 30.0113 16.9683ZM29.4459 25.1203C28.1397 25.3642 27.1224 24.2051 27.2819 22.4438C27.3851 20.6222 28.6524 19.081 30.0113 19.0444C31.2011 19.0026 31.9789 20.2931 31.8413 21.8824C31.6335 23.4251 30.5996 24.8492 29.4459 25.1203ZM27.7303 31.0459C26.5642 31.4559 25.822 30.9416 26.1482 29.805C26.4617 28.5082 27.8293 27.1326 29.1091 26.8295C30.2389 26.5029 30.7492 27.2503 30.3401 28.4232C29.9046 29.4671 28.7806 30.5977 27.7303 31.0459ZM33.1967 10.8563C32.6106 10.5048 31.7245 9.21408 31.3147 8.10023C30.8608 7.08105 31.0415 6.72897 31.6525 7.22246C32.1587 7.69883 32.8661 8.74673 33.2976 9.66371C33.6849 10.6353 33.674 11.2233 33.1967 10.8563ZM34.2053 17.1669C33.6271 17.1302 32.99 15.8496 32.8491 14.3393C32.6384 12.8792 32.9925 11.9805 33.5769 12.2724C34.0429 12.5739 34.5428 13.7548 34.7389 14.964C34.8711 16.2137 34.6516 17.2141 34.2053 17.1669ZM33.5769 23.7403C32.9925 24.0321 32.6384 23.1335 32.8491 21.6734C32.99 20.1631 33.6271 18.8826 34.2053 18.8458C34.6516 18.7985 34.8711 19.799 34.7389 21.0487C34.5428 22.2579 34.0429 23.4385 33.5769 23.7403ZM31.6525 28.7903C31.0415 29.2838 30.8608 28.9317 31.3147 27.9124C31.7245 26.7987 32.6106 25.5078 33.1967 25.1564C33.674 24.7893 33.6849 25.3773 33.2976 26.3489C32.8661 27.2659 32.1587 28.3139 31.6525 28.7903ZM9.10375 34.0062C8.20832 33.5809 7.15151 32.8595 6.67813 32.35C6.20163 31.7465 6.53784 31.5532 7.55066 32.0104C8.67144 32.4317 9.93975 33.3151 10.3046 33.9121C10.6536 34.3854 10.0857 34.4035 9.10375 34.0062ZM14.3703 35.4577C13.1687 35.2602 11.9956 34.7567 11.696 34.2877C11.406 33.6996 12.2992 33.3434 13.7499 33.5557C15.2506 33.698 16.523 34.3393 16.5763 34.922C16.6063 35.3704 15.6296 35.5929 14.3703 35.4577ZM20.3961 35.4626C19.1541 35.5939 18.1604 35.3715 18.208 34.9224C18.2451 34.3407 19.5343 33.6992 21.0349 33.558C22.4858 33.3464 23.3632 33.709 23.0723 34.2968C22.7887 34.7599 21.6152 35.2626 20.3961 35.4626ZM25.6808 34.0111C24.6988 34.4078 24.1309 34.3892 24.48 33.9162C24.8454 33.3194 26.1141 32.437 27.2353 32.0163C28.2346 31.5707 28.5843 31.7531 28.1074 32.3564C27.6338 32.8656 26.5766 33.5864 25.6808 34.0111ZM21.2348 3.45826C22.7676 3.66789 24.1694 4.7018 24.4396 5.86265C24.6936 7.18434 23.532 8.2017 21.7915 8.04683C19.9814 7.94266 18.4503 6.66719 18.4142 5.29928C18.3729 4.10205 19.6409 3.31733 21.2348 3.45826ZM4.76563 19.0317C6.12475 19.0684 7.39197 20.6096 7.49521 22.4312C7.65468 24.1924 6.63735 25.3515 5.33118 25.1076C4.17745 24.8365 3.1436 23.4124 2.93569 21.8698C2.79821 20.2804 3.57598 18.9898 4.76563 19.0317ZM7.0468 4.95408C8.21299 4.54392 8.95505 5.05842 8.62893 6.19496C8.31532 7.49164 6.94798 8.86736 5.66803 9.17047C4.53816 9.49707 4.02786 8.74964 4.43705 7.57681C4.87255 6.53288 5.99653 5.40213 7.0468 4.95408ZM1.58042 25.1436C2.16639 25.4951 3.05252 26.7859 3.4624 27.8997C3.91626 28.919 3.73558 29.271 3.12463 28.7775C2.61839 28.3012 1.91104 27.2532 1.47943 26.3363C1.09223 25.3646 1.1031 24.7767 1.58042 25.1436ZM0.571753 18.8331C1.15006 18.8698 1.78707 20.1504 1.92797 21.6607C2.13861 23.1207 1.78469 24.0194 1.20028 23.7276C0.73412 23.426 0.234245 22.2452 0.0381126 21.0359C-0.0940418 19.7863 0.125553 18.7858 0.571753 18.8331ZM1.20028 12.2596C1.78469 11.9679 2.13861 12.8666 1.92797 14.3265C1.78707 15.8369 1.15006 17.1174 0.571753 17.1541C0.125553 17.2014 -0.0940418 16.2009 0.0381126 14.9513C0.234245 13.742 0.73412 12.5613 1.20028 12.2596ZM3.12463 7.20978C3.73558 6.71629 3.91626 7.06828 3.4624 8.08755C3.05252 9.20127 2.16639 10.4922 1.58042 10.8436C1.1031 11.2106 1.09223 10.6226 1.47943 9.65107C1.91104 8.73405 2.61839 7.68607 3.12463 7.20978ZM25.6733 1.99381C26.5687 2.41913 27.6255 3.14046 28.099 3.64999C28.5754 4.25348 28.2392 4.44664 27.2265 3.98957C26.1056 3.56813 24.8373 2.68491 24.4725 2.08786C24.1235 1.61458 24.6915 1.59642 25.6733 1.99381ZM20.4067 0.542255C21.6083 0.739775 22.7817 1.24333 23.0811 1.7123C23.3712 2.30041 22.478 2.65655 21.0271 2.44413C19.5265 2.30198 18.254 1.66068 18.2009 1.07801C18.1708 0.629513 19.1475 0.407119 20.4067 0.542255ZM14.3809 0.537376C15.623 0.406204 16.6168 0.628333 16.5691 1.07757C16.532 1.65928 15.2429 2.30076 13.7422 2.44204C12.2913 2.65359 11.4139 2.29083 11.7048 1.70328C11.9884 1.24011 13.1619 0.737379 14.3809 0.537376ZM55.4765 12.4044H49.7384C49.4074 12.4044 49.1375 12.1328 49.1375 11.7998V8.74855C49.1375 8.41551 49.4074 8.14384 49.7384 8.14384H67.6679C67.999 8.14384 68.269 8.41551 68.269 8.74855V11.7998C68.269 12.1328 67.999 12.4044 67.6679 12.4044H61.9299C61.5989 12.4044 61.3291 12.6761 61.3291 13.0092V27.2515C61.3291 27.5846 61.0593 27.8562 60.7283 27.8562H56.6781C56.3471 27.8562 56.0772 27.5846 56.0772 27.2515V13.0092C56.0772 12.6761 55.8073 12.4044 55.4765 12.4044Z" fill="url(#paint1_linear_2325_5401)"/>
<path d="M115.515 20.1303H116.972C117.303 20.1303 117.573 19.8587 117.573 19.5256V16.4743C117.573 16.1413 117.303 15.8697 116.972 15.8697H115.523L115.515 15.8696H100.087V15.8697L100.072 15.8698V15.8699L100.056 15.8704V15.8705L100.041 15.8714V15.8715L100.026 15.8728V15.8729L100.011 15.8747L100.011 15.8748L99.996 15.877V15.8771L99.9812 15.8793L99.9811 15.8794L99.9666 15.8825H99.9664L99.9519 15.8855V15.8857L99.9375 15.8891V15.8893L99.9232 15.8932V15.8932L99.909 15.8976V15.8977L99.895 15.9021V15.9022L99.8812 15.907L99.881 15.9071L99.8675 15.9124L99.8673 15.9124L99.8538 15.918L99.8405 15.9239L99.8273 15.9301L99.8272 15.9302L99.8143 15.9366L99.8141 15.9367L99.8013 15.9436L99.7887 15.9507L99.7886 15.9507L99.7762 15.9582L99.7639 15.9658L99.7638 15.9659L99.7518 15.9738V15.9739L99.7399 15.9822L99.7283 15.9907L99.7282 15.9908L99.7168 15.9996H99.7167L99.7055 16.0086L99.7055 16.0088L99.6945 16.018L99.6837 16.0277V16.0278L99.6732 16.0377L99.6629 16.0478H99.6628L99.6528 16.0581L99.6527 16.0583L99.6429 16.0688V16.069L99.6333 16.0796V16.0797L99.6239 16.0908L99.615 16.1021H99.6149L99.6062 16.1137L99.5976 16.1254L99.5976 16.1255L99.5894 16.1373V16.1374L99.5814 16.1495L99.5737 16.1619L99.5736 16.1619L99.5663 16.1744L99.5592 16.1872L99.5592 16.1873L99.5524 16.2002L99.5459 16.2133L99.5398 16.2266H99.5397L99.5339 16.24L99.5337 16.2401L99.5283 16.2537L99.5229 16.2675L99.5181 16.2814V16.2815L99.5136 16.2955V16.2956L99.5093 16.3098V16.3099L99.5054 16.3242L99.5019 16.3388L99.4985 16.3534L99.4959 16.3682L99.4933 16.3831V16.3832L99.4911 16.3981L99.4894 16.4133V16.4133L99.4881 16.4285V16.4286L99.4872 16.4439V16.4441L99.4868 16.4595L99.4865 16.475V19.5263V19.5263L99.4868 19.5418V19.542L99.4872 19.5572V19.5574L99.4881 19.5726V19.5727L99.4894 19.588L99.4911 19.603V19.6032L99.4933 19.6181V19.6182L99.4959 19.633V19.6332L99.4985 19.6479V19.648L99.5019 19.6624V19.6627L99.5054 19.677V19.6771L99.5093 19.6914V19.6915L99.5136 19.7057V19.7058L99.5181 19.7199V19.7199L99.5229 19.7336V19.7339L99.5283 19.7475V19.7477L99.5337 19.7612V19.7613L99.5397 19.7747V19.7748L99.5459 19.7879V19.7881L99.5524 19.8011V19.8012L99.5592 19.814V19.8141L99.5663 19.8267L99.5736 19.8394V19.8395L99.5894 19.8639V19.864L99.5976 19.8758V19.8759L99.6062 19.8876V19.8878L99.6149 19.8992V19.8993L99.6239 19.9105V19.9106L99.6333 19.9216V19.9217L99.6429 19.9324V19.9325L99.6527 19.943V19.9431L99.6628 19.9535V19.9536L99.6732 19.9637V19.9638L99.6837 19.9735V19.9736L99.6945 19.9832V19.9833L99.7055 19.9925V19.9926L99.7167 20.0017V20.0018L99.7282 20.0106L99.7399 20.0191V20.0192L99.7518 20.0273V20.0276L99.7638 20.0355L99.7762 20.0432V20.0433L99.7886 20.0507L99.8013 20.0578V20.0579L99.8141 20.0646L99.8272 20.0712L99.8405 20.0774L99.8538 20.0834L99.8673 20.0889L99.881 20.0942V20.0942L99.895 20.0991L99.909 20.1037L99.9232 20.108V20.1081L99.9375 20.112L99.9519 20.1155L99.9664 20.1185L99.9811 20.1216L99.996 20.1242L100.011 20.1264L100.026 20.1281L100.041 20.1294L100.056 20.1303L100.072 20.1307L100.087 20.1309L115.515 20.1303ZM125.102 22.9099V13.09C125.102 12.757 125.372 12.4854 125.703 12.4854H131.292C131.935 12.4854 132.484 12.5617 132.94 12.7145C133.395 12.8673 133.761 13.1506 134.038 13.564C134.315 13.9773 134.516 14.5438 134.641 15.2629C134.766 15.982 134.829 16.8987 134.829 18.0136C134.829 19.1281 134.771 20.0405 134.655 20.7506C134.538 21.4607 134.342 22.0181 134.065 22.4225C133.788 22.8269 133.422 23.1101 132.966 23.2719C132.511 23.4336 131.952 23.5146 131.292 23.5146H125.703C125.372 23.5146 125.102 23.2429 125.102 22.9099ZM119.85 8.74856V27.2515C119.85 27.5844 120.12 27.8562 120.451 27.8562H131.319C132.766 27.8562 134.03 27.7256 135.11 27.4651C136.191 27.2046 137.093 26.7146 137.816 25.9955C138.54 25.2766 139.085 24.2785 139.451 23.0022C139.776 21.8678 139.957 20.428 139.993 18.6829C139.998 18.4645 140 18.2414 140 18.0136C140 17.7856 139.998 17.5625 139.993 17.3441C139.957 15.599 139.776 14.1591 139.451 13.0247C139.085 11.7483 138.54 10.746 137.816 10.0179C137.093 9.28979 136.191 8.79543 135.11 8.53483C134.029 8.2741 132.765 8.1438 131.319 8.1438H120.451C120.121 8.1438 119.85 8.41586 119.85 8.74856ZM85.0165 27.8562H86.6261C86.874 27.8562 87.0858 27.7141 87.1809 27.4838L91.2572 17.626C91.3684 17.3572 91.6458 17.2083 91.9296 17.2656C92.2134 17.3226 92.4128 17.5673 92.4128 17.8585V27.2515C92.4128 27.5845 92.6826 27.8562 93.0135 27.8562H96.6081C96.9391 27.8562 97.209 27.5845 97.209 27.2515V8.74856C97.209 8.41542 96.9389 8.1438 96.6081 8.1438H90.7221C90.4751 8.1438 90.2637 8.28529 90.1682 8.51453L85.5706 19.5435C85.4751 19.7729 85.2637 19.9143 85.0165 19.9143C84.7692 19.9143 84.5579 19.7729 84.4624 19.5435L79.8647 8.51453C79.7691 8.28516 79.5578 8.1438 79.3107 8.1438H73.4247C73.094 8.1438 72.8239 8.41559 72.8239 8.74856V27.2515C72.8239 27.5845 73.0939 27.8562 73.4247 27.8562H77.0193C77.3503 27.8562 77.6202 27.5845 77.6202 27.2515V17.8585C77.6202 17.5671 77.8194 17.3226 78.1032 17.2656C78.387 17.2083 78.6644 17.3572 78.7758 17.626L82.8521 27.4838C82.9472 27.7141 83.1589 27.8562 83.4067 27.8562H85.0165ZM100.087 12.4044H116.972C117.303 12.4044 117.573 12.1328 117.573 11.7997V8.74856C117.573 8.41542 117.303 8.1438 116.972 8.1438H100.087C99.7566 8.1438 99.4865 8.41564 99.4865 8.74856V11.7997C99.4865 12.1326 99.7564 12.4044 100.087 12.4044ZM100.087 27.8562H116.972C117.303 27.8562 117.573 27.5845 117.573 27.2515V24.2002C117.573 23.8673 117.303 23.5955 116.972 23.5955H100.087C99.7566 23.5955 99.4865 23.8674 99.4865 24.2002V27.2515C99.4865 27.5844 99.7564 27.8562 100.087 27.8562Z" fill="url(#paint2_linear_2325_5401)"/>
<defs>
<linearGradient id="paint0_linear_2325_5401" x1="-134.749" y1="-11.4189" x2="-157.213" y2="-11.4189" gradientUnits="userSpaceOnUse">
<stop stop-color="#D10F5C"/>
<stop offset="1" stop-color="#E61D6C"/>
</linearGradient>
<linearGradient id="paint1_linear_2325_5401" x1="-131.831" y1="-14.3576" x2="-166.608" y2="-14.3576" gradientUnits="userSpaceOnUse">
<stop stop-color="#1464C0"/>
<stop offset="1" stop-color="#14ADFF"/>
</linearGradient>
<linearGradient id="paint2_linear_2325_5401" x1="78.1467" y1="-1.27629" x2="79.5305" y2="18.3868" gradientUnits="userSpaceOnUse">
<stop stop-color="#0071FF"/>
<stop offset="0.48" stop-color="#14ADFF"/>
<stop offset="1" stop-color="#01C9FF"/>
</linearGradient>
</defs>
</svg>
