<svg width="106" height="41" viewBox="0 0 106 41" fill="none" xmlns="http://www.w3.org/2000/svg">
<g filter="url(#filter0_d_2898_41267)">
<rect x="-620" y="-346" width="880" height="419" rx="24" fill="white"/>
<g clip-path="url(#clip0_2898_41267)">
<path d="M8.86 10.7486V29.2515C8.86 29.5846 8.5901 29.8562 8.2591 29.8562H4.209C3.8781 29.8562 3.6082 29.5846 3.6082 29.2515V10.7486C3.6082 10.4155 3.8781 10.1438 4.209 10.1438H8.2591C8.5901 10.1438 8.86 10.4155 8.86 10.7486ZM-28.9037 3.98889C-27.9218 3.59219 -27.3538 3.61066 -27.7029 4.08364C-28.0683 4.68055 -29.337 5.56299 -30.4582 5.98364C-31.4575 6.4293 -31.8073 6.24686 -31.3303 5.64354C-30.8566 5.1344 -29.7995 4.41355 -28.9037 3.98889ZM-31.5508 29.1246C-30.5956 29.6417 -29.722 30.6352 -29.422 31.6093V31.6095L-29.4199 31.6165C-29.4016 31.6751 -29.3853 31.7339 -29.3711 31.7922C-29.3527 31.8566 -29.3377 31.9187 -29.326 31.979C-29.2034 32.5884 -29.4212 32.9858 -29.8541 33.1205L-29.8545 33.1207L-29.8618 33.1229C-30.1451 33.2104 -30.5198 33.1856 -30.9531 33.0332C-32.0034 32.5851 -33.1274 31.4544 -33.5629 30.4105C-33.9721 29.2375 -33.4618 28.4903 -32.3319 28.8168C-32.0892 28.8744 -31.8433 28.9704 -31.6021 29.0973L-31.5986 29.0991L-31.5508 29.1246ZM-24.4575 34.5418C-25.9905 34.3321 -27.3922 33.2982 -27.6625 32.1373C-27.9166 30.8155 -26.7549 29.7983 -25.0145 29.9531C-23.2044 30.0573 -21.6732 31.3328 -21.6371 32.7007C-21.5957 33.8979 -22.8638 34.6828 -24.4575 34.5418ZM-16.0599 28.0434C-17.9349 28.1305 -19.4651 26.7093 -19.4435 24.8122C-19.4303 22.8352 -17.7936 21.1904 -15.829 21.1799C-13.944 21.1607 -12.5337 22.7027 -12.6183 24.5814C-12.7488 26.3928 -14.2677 27.9194 -16.0599 28.0434ZM-16.7713 34.5477C-18.3509 34.684 -19.6321 33.8994 -19.5889 32.7023C-19.5508 31.3346 -18.0176 30.0613 -16.1976 29.9557C-14.4568 29.802 -13.2957 30.82 -13.5505 32.1415C-13.8216 33.3023 -15.2383 34.3408 -16.7713 34.5477ZM-8.8909 11.1832C-9.1336 11.1257 -9.3796 11.0296 -9.6209 10.9026L-9.6239 10.9009L-9.6721 10.8752C-10.6272 10.3581 -11.501 9.36461 -11.8008 8.39052V8.3903L-11.803 8.38333C-11.8211 8.32473 -11.8375 8.26606 -11.8517 8.20764C-11.8701 8.14325 -11.8851 8.08121 -11.8967 8.02083C-12.0193 7.4115 -11.8016 7.0142 -11.3687 6.87932L-11.3683 6.87915L-11.3608 6.87697C-11.0777 6.78949 -10.7029 6.81419 -10.2695 6.96658C-9.2193 7.41473 -8.0953 8.54535 -7.6598 9.58923C-7.2507 10.7623 -7.7609 11.5096 -8.8908 11.183L-8.8909 11.1832ZM-7.9887 18.9683C-9.3476 18.9317 -10.6149 17.3905 -10.7181 15.5689C-10.8776 13.8076 -9.8603 12.6484 -8.5541 12.8923C-7.4004 13.1634 -6.3665 14.5877 -6.1587 16.1303C-6.0211 17.7195 -6.7989 19.0101 -7.9887 18.9683ZM-8.5541 27.1203C-9.8603 27.3642 -10.8776 26.2051 -10.7181 24.4438C-10.6149 22.6222 -9.3476 21.081 -7.9887 21.0444C-6.7989 21.0026 -6.0211 22.2931 -6.1587 23.8824C-6.3665 25.4251 -7.4004 26.8492 -8.5541 27.1203ZM-10.2697 33.0459C-11.4358 33.4559 -12.178 32.9416 -11.8518 31.805C-11.5383 30.5082 -10.1707 29.1326 -8.8909 28.8295C-7.7611 28.5029 -7.2508 29.2503 -7.6599 30.4232C-8.0954 31.4671 -9.2194 32.5977 -10.2697 33.0459ZM-4.8033 12.8563C-5.3894 12.5048 -6.2755 11.2141 -6.6853 10.1002C-7.1392 9.08105 -6.9585 8.72897 -6.3475 9.22246C-5.8413 9.69883 -5.1339 10.7467 -4.7024 11.6637C-4.3151 12.6353 -4.326 13.2233 -4.8033 12.8563ZM-3.7947 19.1669C-4.3729 19.1302 -5.01 17.8496 -5.1509 16.3393C-5.3616 14.8792 -5.0075 13.9805 -4.4231 14.2724C-3.9571 14.5739 -3.4572 15.7548 -3.2611 16.964C-3.1289 18.2137 -3.3484 19.2141 -3.7947 19.1669ZM-4.4231 25.7403C-5.0075 26.0321 -5.3616 25.1335 -5.1509 23.6734C-5.01 22.1631 -4.3729 20.8826 -3.7947 20.8458C-3.3484 20.7985 -3.1289 21.799 -3.2611 23.0487C-3.4572 24.2579 -3.9571 25.4385 -4.4231 25.7403ZM-6.3475 30.7903C-6.9585 31.2838 -7.1392 30.9317 -6.6853 29.9124C-6.2755 28.7987 -5.3894 27.5078 -4.8033 27.1564C-4.326 26.7893 -4.3151 27.3773 -4.7024 28.3489C-5.1339 29.2659 -5.8413 30.3139 -6.3475 30.7903ZM-28.8962 36.0062C-29.7917 35.5809 -30.8485 34.8595 -31.3219 34.35C-31.7984 33.7465 -31.4622 33.5532 -30.4493 34.0104C-29.3286 34.4317 -28.0603 35.3151 -27.6954 35.9121C-27.3464 36.3854 -27.9143 36.4035 -28.8962 36.0062ZM-23.6297 37.4577C-24.8313 37.2602 -26.0044 36.7567 -26.304 36.2877C-26.594 35.6996 -25.7008 35.3434 -24.2501 35.5557C-22.7494 35.698 -21.477 36.3393 -21.4237 36.922C-21.3937 37.3704 -22.3704 37.5929 -23.6297 37.4577ZM-17.6039 37.4626C-18.8459 37.5939 -19.8396 37.3715 -19.792 36.9224C-19.7549 36.3407 -18.4657 35.6992 -16.9651 35.558C-15.5142 35.3464 -14.6368 35.709 -14.9277 36.2968C-15.2113 36.7599 -16.3848 37.2626 -17.6039 37.4626ZM-12.3192 36.0111C-13.3012 36.4078 -13.8691 36.3892 -13.52 35.9162C-13.1546 35.3194 -11.8859 34.437 -10.7647 34.0163C-9.7654 33.5707 -9.4157 33.7531 -9.8926 34.3564C-10.3662 34.8656 -11.4234 35.5864 -12.3192 36.0111ZM-16.7652 5.45826C-15.2324 5.66789 -13.8306 6.7018 -13.5604 7.86265C-13.3064 9.18434 -14.468 10.2017 -16.2085 10.0468C-18.0186 9.94266 -19.5497 8.66719 -19.5858 7.29928C-19.6271 6.10205 -18.3591 5.31733 -16.7652 5.45826ZM-33.2344 21.0317C-31.8753 21.0684 -30.608 22.6096 -30.5048 24.4312C-30.3453 26.1924 -31.3626 27.3515 -32.6688 27.1076C-33.8225 26.8365 -34.8564 25.4124 -35.0643 23.8698C-35.2018 22.2804 -34.424 20.9898 -33.2344 21.0317ZM-30.9532 6.95408C-29.787 6.54392 -29.0449 7.05842 -29.3711 8.19496C-29.6847 9.49164 -31.052 10.8674 -32.332 11.1705C-33.4618 11.4971 -33.9721 10.7496 -33.563 9.57681C-33.1275 8.53288 -32.0035 7.40213 -30.9532 6.95408ZM-36.4196 27.1436C-35.8336 27.4951 -34.9475 28.7859 -34.5376 29.8997C-34.0837 30.919 -34.2644 31.271 -34.8754 30.7775C-35.3816 30.3012 -36.089 29.2532 -36.5206 28.3363C-36.9078 27.3646 -36.8969 26.7767 -36.4196 27.1436ZM-37.4282 20.8331C-36.8499 20.8698 -36.2129 22.1504 -36.072 23.6607C-35.8614 25.1207 -36.2153 26.0194 -36.7997 25.7276C-37.2659 25.426 -37.7658 24.2452 -37.9619 23.0359C-38.094 21.7863 -37.8744 20.7858 -37.4282 20.8331ZM-36.7997 14.2596C-36.2153 13.9679 -35.8614 14.8666 -36.072 16.3265C-36.2129 17.8369 -36.8499 19.1174 -37.4282 19.1541C-37.8744 19.2014 -38.094 18.2009 -37.9619 16.9513C-37.7658 15.742 -37.2659 14.5613 -36.7997 14.2596ZM-34.8754 9.20978C-34.2644 8.71629 -34.0837 9.06828 -34.5376 10.0876C-34.9475 11.2013 -35.8336 12.4922 -36.4196 12.8436C-36.8969 13.2106 -36.9078 12.6226 -36.5206 11.6511C-36.089 10.734 -35.3816 9.68607 -34.8754 9.20978ZM-12.3267 3.99381C-11.4313 4.41913 -10.3745 5.14046 -9.901 5.64999C-9.4246 6.25348 -9.7608 6.44664 -10.7735 5.98957C-11.8944 5.56813 -13.1627 4.68491 -13.5275 4.08786C-13.8765 3.61458 -13.3085 3.59642 -12.3267 3.99381ZM-17.5933 2.54226C-16.3917 2.73978 -15.2183 3.24333 -14.9189 3.7123C-14.6288 4.30041 -15.522 4.65655 -16.9729 4.44413C-18.4735 4.30198 -19.746 3.66068 -19.7991 3.07801C-19.8292 2.62951 -18.8525 2.40712 -17.5933 2.54226ZM-23.6191 2.53738C-22.377 2.4062 -21.3832 2.62833 -21.4309 3.07757C-21.468 3.65928 -22.7571 4.30076 -24.2578 4.44204C-25.7087 4.65359 -26.5861 4.29083 -26.2952 3.70328C-26.0116 3.24011 -24.8381 2.73738 -23.6191 2.53738ZM17.4765 14.4044H11.7384C11.4074 14.4044 11.1375 14.1328 11.1375 13.7998V10.7486C11.1375 10.4155 11.4074 10.1438 11.7384 10.1438H29.6679C29.999 10.1438 30.269 10.4155 30.269 10.7486V13.7998C30.269 14.1328 29.999 14.4044 29.6679 14.4044H23.9299C23.5989 14.4044 23.3291 14.6761 23.3291 15.0092V29.2515C23.3291 29.5846 23.0593 29.8562 22.7283 29.8562H18.6781C18.3471 29.8562 18.0772 29.5846 18.0772 29.2515V15.0092C18.0772 14.6761 17.8073 14.4044 17.4765 14.4044Z" fill="url(#paint0_linear_2898_41267)"/>
<path d="M77.515 22.1306H78.972C79.303 22.1306 79.573 21.8589 79.573 21.5259V18.4745C79.573 18.1416 79.303 17.87 78.972 17.87H77.523L77.515 17.8698H62.087V17.87H62.072V17.8702L62.056 17.8706V17.8707L62.041 17.8716V17.8717L62.026 17.8731V17.8732L62.011 17.8749V17.8751L61.996 17.8772V17.8774L61.9812 17.8795L61.9811 17.8797L61.9666 17.8827H61.9664L61.9519 17.8858V17.8859L61.9375 17.8894V17.8895L61.9232 17.8934V17.8935L61.909 17.8978V17.8979L61.895 17.9024V17.9025L61.8812 17.9072L61.881 17.9074L61.8675 17.9127H61.8673L61.8538 17.9182L61.8405 17.9242L61.8273 17.9304L61.8272 17.9305L61.8143 17.9369L61.8141 17.937L61.8013 17.9438L61.7887 17.9509L61.7886 17.951L61.7762 17.9584L61.7639 17.966L61.7638 17.9662L61.7518 17.974V17.9742L61.7399 17.9824L61.7283 17.991L61.7282 17.9911L61.7168 17.9998H61.7167L61.7055 18.0089V18.009L61.6945 18.0183L61.6837 18.0279V18.028L61.6732 18.0379L61.6629 18.048H61.6628L61.6528 18.0584L61.6527 18.0585L61.6429 18.0691V18.0692L61.6333 18.0799V18.08L61.6239 18.091L61.615 18.1024H61.6149L61.6062 18.114L61.5976 18.1256V18.1257L61.5894 18.1375V18.1376L61.5814 18.1497L61.5737 18.1621L61.5736 18.1622L61.5663 18.1747L61.5592 18.1874V18.1875L61.5524 18.2004L61.5459 18.2136L61.5398 18.2269H61.5397L61.5339 18.2402L61.5337 18.2403L61.5283 18.2539L61.5229 18.2677L61.5181 18.2816V18.2817L61.5136 18.2958L61.5093 18.31V18.3101L61.5054 18.3245L61.5019 18.339L61.4985 18.3537L61.4959 18.3685L61.4933 18.3833V18.3835L61.4911 18.3984L61.4894 18.4135V18.4136L61.4881 18.4288V18.4289L61.4872 18.4441V18.4444L61.4868 18.4597L61.4865 18.4752V21.5265V21.5266L61.4868 21.5421V21.5422L61.4872 21.5575V21.5576L61.4881 21.5729V21.573L61.4894 21.5882L61.4911 21.6032V21.6035L61.4933 21.6184L61.4959 21.6332V21.6334L61.4985 21.6481V21.6482L61.5019 21.6627V21.6629L61.5054 21.6773L61.5093 21.6917L61.5136 21.706V21.7061L61.5181 21.7201V21.7202L61.5229 21.7339V21.7341L61.5283 21.7477V21.748L61.5337 21.7615L61.5397 21.775V21.7751L61.5459 21.7881V21.7883L61.5524 21.8013V21.8014L61.5592 21.8143V21.8144L61.5663 21.827L61.5736 21.8397V21.8398L61.5894 21.8641V21.8643L61.5976 21.8761V21.8762L61.6062 21.8879V21.888L61.6149 21.8994V21.8995L61.6239 21.9107V21.9109L61.6333 21.9218V21.9219L61.6429 21.9326V21.9327L61.6527 21.9432V21.9433L61.6628 21.9537V21.9539L61.6732 21.9639V21.964L61.6837 21.9737V21.9739L61.6945 21.9834V21.9835L61.7055 21.9927V21.9929L61.7167 22.002V22.0021L61.7282 22.0108L61.7399 22.0194V22.0195L61.7518 22.0276V22.0278L61.7638 22.0357L61.7762 22.0434V22.0435L61.7886 22.0509L61.8013 22.058V22.0581L61.8141 22.0649L61.8272 22.0714L61.8405 22.0777L61.8538 22.0836L61.8673 22.0891L61.881 22.0944V22.0945L61.895 22.0994L61.909 22.1039L61.9232 22.1083L61.9375 22.1122L61.9519 22.1157L61.9664 22.1188L61.9811 22.1218L61.996 22.1244L62.011 22.1266L62.026 22.1284L62.041 22.1297L62.056 22.1305L62.072 22.131L62.087 22.1311L77.515 22.1306ZM87.102 24.9102V15.0903C87.102 14.7572 87.372 14.4856 87.703 14.4856H93.292C93.935 14.4856 94.484 14.562 94.94 14.7147C95.395 14.8676 95.761 15.1509 96.038 15.5642C96.315 15.9776 96.516 16.544 96.641 17.2631C96.766 17.9822 96.829 18.899 96.829 20.0138C96.829 21.1283 96.771 22.0407 96.655 22.7508C96.538 23.4609 96.342 24.0183 96.065 24.4227C95.788 24.8271 95.422 25.1103 94.966 25.2721C94.511 25.4339 93.952 25.5148 93.292 25.5148H87.703C87.372 25.5148 87.102 25.2432 87.102 24.9102ZM81.85 10.7488V29.2517C81.85 29.5846 82.12 29.8564 82.451 29.8564H93.319C94.766 29.8564 96.03 29.7259 97.11 29.4654C98.191 29.2048 99.093 28.7149 99.816 27.9958C100.54 27.2768 101.085 26.2788 101.451 25.0025C101.776 23.8681 101.957 22.4282 101.993 20.6831C101.998 20.4648 102 20.2417 102 20.0138C102 19.7859 101.998 19.5627 101.993 19.3444C101.957 17.5993 101.776 16.1594 101.451 15.025C101.085 13.7485 100.54 12.7463 99.816 12.0182C99.093 11.29 98.191 10.7957 97.11 10.5351C96.029 10.2743 94.765 10.144 93.319 10.144H82.451C82.121 10.144 81.85 10.4161 81.85 10.7488ZM47.0165 29.8564H48.6261C48.874 29.8564 49.0858 29.7143 49.1809 29.4841L53.2572 19.6262C53.3684 19.3574 53.6458 19.2086 53.9296 19.2658C54.2134 19.3228 54.4128 19.5675 54.4128 19.8587V29.2517C54.4128 29.5847 54.6826 29.8564 55.0135 29.8564H58.6081C58.9391 29.8564 59.209 29.5848 59.209 29.2517V10.7488C59.209 10.4157 58.9389 10.144 58.6081 10.144H52.7221C52.4751 10.144 52.2637 10.2855 52.1682 10.5148L47.5706 21.5437C47.4751 21.7731 47.2637 21.9145 47.0165 21.9145C46.7692 21.9145 46.5579 21.7731 46.4624 21.5437L41.8647 10.5148C41.7691 10.2854 41.5578 10.144 41.3107 10.144H35.4247C35.094 10.144 34.8239 10.4158 34.8239 10.7488V29.2517C34.8239 29.5847 35.0939 29.8564 35.4247 29.8564H39.0193C39.3503 29.8564 39.6202 29.5848 39.6202 29.2517V19.8587C39.6202 19.5674 39.8194 19.3228 40.1032 19.2658C40.387 19.2086 40.6644 19.3574 40.7758 19.6262L44.8521 29.4841C44.9472 29.7143 45.1589 29.8564 45.4067 29.8564H47.0165ZM62.087 14.4047H78.972C79.303 14.4047 79.573 14.133 79.573 13.8V10.7488C79.573 10.4157 79.303 10.144 78.972 10.144H62.087C61.7566 10.144 61.4865 10.4159 61.4865 10.7488V13.8C61.4865 14.1328 61.7564 14.4047 62.087 14.4047ZM62.087 29.8564H78.972C79.303 29.8564 79.573 29.5848 79.573 29.2517V26.2004C79.573 25.8675 79.303 25.5958 78.972 25.5958H62.087C61.7566 25.5958 61.4865 25.8677 61.4865 26.2004V29.2517C61.4865 29.5846 61.7564 29.8564 62.087 29.8564Z" fill="url(#paint1_linear_2898_41267)"/>
</g>
</g>
<defs>
<filter id="filter0_d_2898_41267" x="-668" y="-390" width="976" height="515" filterUnits="userSpaceOnUse" color-interpolation-filters="sRGB">
<feFlood flood-opacity="0" result="BackgroundImageFix"/>
<feColorMatrix in="SourceAlpha" type="matrix" values="0 0 0 0 0 0 0 0 0 0 0 0 0 0 0 0 0 0 127 0" result="hardAlpha"/>
<feOffset dy="4"/>
<feGaussianBlur stdDeviation="24"/>
<feColorMatrix type="matrix" values="0 0 0 0 0 0 0 0 0 0 0 0 0 0 0 0 0 0 0.02 0"/>
<feBlend mode="normal" in2="BackgroundImageFix" result="effect1_dropShadow_2898_41267"/>
<feBlend mode="normal" in="SourceGraphic" in2="effect1_dropShadow_2898_41267" result="shape"/>
</filter>
<linearGradient id="paint0_linear_2898_41267" x1="-169.831" y1="-12.3576" x2="-204.608" y2="-12.3576" gradientUnits="userSpaceOnUse">
<stop stop-color="#1464C0"/>
<stop offset="1" stop-color="#14ADFF"/>
</linearGradient>
<linearGradient id="paint1_linear_2898_41267" x1="40.1467" y1="0.723962" x2="41.5305" y2="20.3871" gradientUnits="userSpaceOnUse">
<stop stop-color="#0071FF"/>
<stop offset="0.48" stop-color="#14ADFF"/>
<stop offset="1" stop-color="#01C9FF"/>
</linearGradient>
<clipPath id="clip0_2898_41267">
<rect width="140" height="36" fill="white" transform="translate(-38 2)"/>
</clipPath>
</defs>
</svg>
