<svg width="42" height="41" viewBox="0 0 42 41" fill="none" xmlns="http://www.w3.org/2000/svg">
<g filter="url(#filter0_d_2898_41267)">
<rect x="-578" y="-346" width="880" height="419" rx="24" fill="white"/>
<path d="M14.49 -17.77L9.49997 -15.89C8.34997 -15.46 7.40997 -14.1 7.40997 -12.88V-5.45C7.40997 -4.27 8.18997 -2.72 9.13997 -2.01L13.44 1.2C14.85 2.26 17.17 2.26 18.58 1.2L22.88 -2.01C23.83 -2.72 24.61 -4.27 24.61 -5.45V-12.88C24.61 -14.11 23.67 -15.47 22.52 -15.9L17.53 -17.77C16.68 -18.08 15.32 -18.08 14.49 -17.77Z" stroke="white" stroke-width="2" stroke-linecap="round" stroke-linejoin="round"/>
<g clip-path="url(#clip0_2898_41267)">
<path d="M15.1945 18.898C15.356 19.2291 15.4213 19.6458 15.3495 20.0774C15.2777 20.5092 15.0691 20.9565 14.8168 21.3693C14.6348 21.6671 14.4299 21.9468 14.2189 22.2217C13.6764 22.8343 13.368 23.665 13.4097 24.5769C13.5389 26.3882 15.0492 27.9094 16.8492 28.0409C18.7159 28.1264 20.2485 26.7077 20.2347 24.8118C20.2284 23.7826 19.7819 22.8423 19.0778 22.1755C18.8563 21.9461 18.6386 21.7071 18.4379 21.4274C17.9529 20.7514 17.5343 19.8389 17.9655 19.0325C18.2473 18.5052 19.9393 17.0531 20.5312 16.7939C21.7244 16.2716 22.7454 16.8363 23.5701 17.6966C24.23 18.3853 25.15 18.8209 26.1559 18.8278C28.041 18.85 29.4536 17.3104 29.3675 15.4234C29.2381 13.6121 27.7277 12.0909 25.9278 11.9594C23.7932 11.8617 23.7273 13.1792 22.1864 13.8239C20.86 14.3792 19.3245 13.2856 18.6046 12.2418C17.7904 11.0612 18.5748 9.9756 19.3785 9.11124C19.9709 8.61313 20.3474 7.96673 20.366 7.2978C20.4093 6.10075 19.1279 5.31611 17.5485 5.45234C16.0153 5.65931 14.5987 6.69784 14.3276 7.85865C14.2026 8.50671 14.4182 9.08192 14.8758 9.48163C15.6061 10.2289 16.0981 10.8935 15.4505 11.9509C15.0399 12.6218 13.9072 14.0115 13.1057 14.2622C11.88 14.6452 11.5557 13.952 10.7973 13.2908C10.4117 12.9328 9.89865 12.7739 9.33112 12.8798C8.1774 13.1509 7.14354 14.575 6.93563 16.1177C6.79815 17.707 7.57597 18.9975 8.76562 18.9557C9.39315 18.9388 10.001 18.6012 10.4838 18.0634C11.0947 17.5067 11.3791 16.738 12.2856 16.636C13.5589 16.4929 14.688 17.8601 15.1945 18.898Z" fill="url(#paint0_linear_2898_41267)"/>
<path d="M50.86 10.7486V29.2515C50.86 29.5846 50.5901 29.8562 50.2591 29.8562H46.209C45.8781 29.8562 45.6082 29.5846 45.6082 29.2515V10.7486C45.6082 10.4155 45.8781 10.1438 46.209 10.1438H50.2591C50.5901 10.1438 50.86 10.4155 50.86 10.7486ZM13.0963 3.98889C14.0782 3.59219 14.6462 3.61066 14.2971 4.08364C13.9317 4.68055 12.663 5.56299 11.5418 5.98364C10.5425 6.4293 10.1927 6.24686 10.6697 5.64354C11.1434 5.1344 12.2005 4.41355 13.0963 3.98889ZM10.4492 29.1246C11.4044 29.6417 12.278 30.6352 12.578 31.6093V31.6095L12.5801 31.6165C12.5984 31.6751 12.6147 31.7339 12.6289 31.7922C12.6473 31.8566 12.6623 31.9187 12.674 31.979C12.7966 32.5884 12.5788 32.9858 12.1459 33.1205L12.1455 33.1207L12.1382 33.1229C11.8549 33.2104 11.4802 33.1856 11.0469 33.0332C9.99658 32.5851 8.87259 31.4544 8.43709 30.4105C8.0279 29.2375 8.5382 28.4903 9.66807 28.8168C9.91083 28.8744 10.1567 28.9704 10.3979 29.0973L10.4014 29.0991L10.4492 29.1246ZM17.5425 34.5418C16.0095 34.3321 14.6078 33.2982 14.3375 32.1373C14.0834 30.8155 15.2451 29.7983 16.9855 29.9531C18.7956 30.0573 20.3268 31.3328 20.3629 32.7007C20.4043 33.8979 19.1362 34.6828 17.5425 34.5418ZM25.9401 28.0434C24.0651 28.1305 22.5349 26.7093 22.5565 24.8122C22.5697 22.8352 24.2064 21.1904 26.171 21.1799C28.056 21.1607 29.4663 22.7027 29.3817 24.5814C29.2512 26.3928 27.7323 27.9194 25.9401 28.0434ZM25.2287 34.5477C23.6491 34.684 22.3679 33.8994 22.4111 32.7023C22.4492 31.3346 23.9824 30.0613 25.8024 29.9557C27.5432 29.802 28.7043 30.82 28.4495 32.1415C28.1784 33.3023 26.7617 34.3408 25.2287 34.5477ZM33.1091 11.1832C32.8664 11.1257 32.6204 11.0296 32.3791 10.9026L32.3761 10.9009L32.3279 10.8752C31.3728 10.3581 30.499 9.36461 30.1992 8.39052V8.3903L30.197 8.38333C30.1789 8.32473 30.1625 8.26606 30.1483 8.20764C30.1299 8.14325 30.1149 8.08121 30.1033 8.02083C29.9807 7.4115 30.1984 7.0142 30.6313 6.87932L30.6317 6.87915L30.6392 6.87697C30.9223 6.78949 31.2971 6.81419 31.7305 6.96658C32.7807 7.41473 33.9047 8.54535 34.3402 9.58923C34.7493 10.7623 34.2391 11.5096 33.1092 11.183L33.1091 11.1832ZM34.0113 18.9683C32.6524 18.9317 31.3851 17.3905 31.2819 15.5689C31.1224 13.8076 32.1397 12.6484 33.4459 12.8923C34.5996 13.1634 35.6335 14.5877 35.8413 16.1303C35.9789 17.7195 35.2011 19.0101 34.0113 18.9683ZM33.4459 27.1203C32.1397 27.3642 31.1224 26.2051 31.2819 24.4438C31.3851 22.6222 32.6524 21.081 34.0113 21.0444C35.2011 21.0026 35.9789 22.2931 35.8413 23.8824C35.6335 25.4251 34.5996 26.8492 33.4459 27.1203ZM31.7303 33.0459C30.5642 33.4559 29.822 32.9416 30.1482 31.805C30.4617 30.5082 31.8293 29.1326 33.1091 28.8295C34.2389 28.5029 34.7492 29.2503 34.3401 30.4232C33.9046 31.4671 32.7806 32.5977 31.7303 33.0459ZM37.1967 12.8563C36.6106 12.5048 35.7245 11.2141 35.3147 10.1002C34.8608 9.08105 35.0415 8.72897 35.6525 9.22246C36.1587 9.69883 36.8661 10.7467 37.2976 11.6637C37.6849 12.6353 37.674 13.2233 37.1967 12.8563ZM38.2053 19.1669C37.6271 19.1302 36.99 17.8496 36.8491 16.3393C36.6384 14.8792 36.9925 13.9805 37.5769 14.2724C38.0429 14.5739 38.5428 15.7548 38.7389 16.964C38.8711 18.2137 38.6516 19.2141 38.2053 19.1669ZM37.5769 25.7403C36.9925 26.0321 36.6384 25.1335 36.8491 23.6734C36.99 22.1631 37.6271 20.8826 38.2053 20.8458C38.6516 20.7985 38.8711 21.799 38.7389 23.0487C38.5428 24.2579 38.0429 25.4385 37.5769 25.7403ZM35.6525 30.7903C35.0415 31.2838 34.8608 30.9317 35.3147 29.9124C35.7245 28.7987 36.6106 27.5078 37.1967 27.1564C37.674 26.7893 37.6849 27.3773 37.2976 28.3489C36.8661 29.2659 36.1587 30.3139 35.6525 30.7903ZM13.1038 36.0062C12.2083 35.5809 11.1515 34.8595 10.6781 34.35C10.2016 33.7465 10.5378 33.5532 11.5507 34.0104C12.6714 34.4317 13.9397 35.3151 14.3046 35.9121C14.6536 36.3854 14.0857 36.4035 13.1038 36.0062ZM18.3703 37.4577C17.1687 37.2602 15.9956 36.7567 15.696 36.2877C15.406 35.6996 16.2992 35.3434 17.7499 35.5557C19.2506 35.698 20.523 36.3393 20.5763 36.922C20.6063 37.3704 19.6296 37.5929 18.3703 37.4577ZM24.3961 37.4626C23.1541 37.5939 22.1604 37.3715 22.208 36.9224C22.2451 36.3407 23.5343 35.6992 25.0349 35.558C26.4858 35.3464 27.3632 35.709 27.0723 36.2968C26.7887 36.7599 25.6152 37.2626 24.3961 37.4626ZM29.6808 36.0111C28.6988 36.4078 28.1309 36.3892 28.48 35.9162C28.8454 35.3194 30.1141 34.437 31.2353 34.0163C32.2346 33.5707 32.5843 33.7531 32.1074 34.3564C31.6338 34.8656 30.5766 35.5864 29.6808 36.0111ZM25.2348 5.45826C26.7676 5.66789 28.1694 6.7018 28.4396 7.86265C28.6936 9.18434 27.532 10.2017 25.7915 10.0468C23.9814 9.94266 22.4503 8.66719 22.4142 7.29928C22.3729 6.10205 23.6409 5.31733 25.2348 5.45826ZM8.76563 21.0317C10.1247 21.0684 11.392 22.6096 11.4952 24.4312C11.6547 26.1924 10.6374 27.3515 9.33118 27.1076C8.17745 26.8365 7.1436 25.4124 6.93569 23.8698C6.79821 22.2804 7.57598 20.9898 8.76563 21.0317ZM11.0468 6.95408C12.213 6.54392 12.9551 7.05842 12.6289 8.19496C12.3153 9.49164 10.948 10.8674 9.66803 11.1705C8.53816 11.4971 8.02786 10.7496 8.43705 9.57681C8.87255 8.53288 9.99653 7.40213 11.0468 6.95408ZM5.58042 27.1436C6.16639 27.4951 7.05252 28.7859 7.4624 29.8997C7.91626 30.919 7.73558 31.271 7.12463 30.7775C6.61839 30.3012 5.91104 29.2532 5.47943 28.3363C5.09223 27.3646 5.1031 26.7767 5.58042 27.1436ZM4.57175 20.8331C5.15006 20.8698 5.78707 22.1504 5.92797 23.6607C6.13861 25.1207 5.78469 26.0194 5.20028 25.7276C4.73412 25.426 4.23425 24.2452 4.03811 23.0359C3.90596 21.7863 4.12555 20.7858 4.57175 20.8331ZM5.20028 14.2596C5.78469 13.9679 6.13861 14.8666 5.92797 16.3265C5.78707 17.8369 5.15006 19.1174 4.57175 19.1541C4.12555 19.2014 3.90596 18.2009 4.03811 16.9513C4.23425 15.742 4.73412 14.5613 5.20028 14.2596ZM7.12463 9.20978C7.73558 8.71629 7.91626 9.06828 7.4624 10.0876C7.05252 11.2013 6.16639 12.4922 5.58042 12.8436C5.1031 13.2106 5.09223 12.6226 5.47943 11.6511C5.91104 10.734 6.61839 9.68607 7.12463 9.20978ZM29.6733 3.99381C30.5687 4.41913 31.6255 5.14046 32.099 5.64999C32.5754 6.25348 32.2392 6.44664 31.2265 5.98957C30.1056 5.56813 28.8373 4.68491 28.4725 4.08786C28.1235 3.61458 28.6915 3.59642 29.6733 3.99381ZM24.4067 2.54226C25.6083 2.73978 26.7817 3.24333 27.0811 3.7123C27.3712 4.30041 26.478 4.65655 25.0271 4.44413C23.5265 4.30198 22.254 3.66068 22.2009 3.07801C22.1708 2.62951 23.1475 2.40712 24.4067 2.54226ZM18.3809 2.53738C19.623 2.4062 20.6168 2.62833 20.5691 3.07757C20.532 3.65928 19.2429 4.30076 17.7422 4.44204C16.2913 4.65359 15.4139 4.29083 15.7048 3.70328C15.9884 3.24011 17.1619 2.73738 18.3809 2.53738ZM59.4765 14.4044H53.7384C53.4074 14.4044 53.1375 14.1328 53.1375 13.7998V10.7486C53.1375 10.4155 53.4074 10.1438 53.7384 10.1438H71.6679C71.999 10.1438 72.269 10.4155 72.269 10.7486V13.7998C72.269 14.1328 71.999 14.4044 71.6679 14.4044H65.9299C65.5989 14.4044 65.3291 14.6761 65.3291 15.0092V29.2515C65.3291 29.5846 65.0593 29.8562 64.7283 29.8562H60.6781C60.3471 29.8562 60.0772 29.5846 60.0772 29.2515V15.0092C60.0772 14.6761 59.8073 14.4044 59.4765 14.4044Z" fill="url(#paint1_linear_2898_41267)"/>
</g>
</g>
<defs>
<filter id="filter0_d_2898_41267" x="-626" y="-390" width="976" height="515" filterUnits="userSpaceOnUse" color-interpolation-filters="sRGB">
<feFlood flood-opacity="0" result="BackgroundImageFix"/>
<feColorMatrix in="SourceAlpha" type="matrix" values="0 0 0 0 0 0 0 0 0 0 0 0 0 0 0 0 0 0 127 0" result="hardAlpha"/>
<feOffset dy="4"/>
<feGaussianBlur stdDeviation="24"/>
<feColorMatrix type="matrix" values="0 0 0 0 0 0 0 0 0 0 0 0 0 0 0 0 0 0 0.02 0"/>
<feBlend mode="normal" in2="BackgroundImageFix" result="effect1_dropShadow_2898_41267"/>
<feBlend mode="normal" in="SourceGraphic" in2="effect1_dropShadow_2898_41267" result="shape"/>
</filter>
<linearGradient id="paint0_linear_2898_41267" x1="-130.749" y1="-9.4187" x2="-153.213" y2="-9.4187" gradientUnits="userSpaceOnUse">
<stop stop-color="#D10F5C"/>
<stop offset="1" stop-color="#E61D6C"/>
</linearGradient>
<linearGradient id="paint1_linear_2898_41267" x1="-127.831" y1="-12.3576" x2="-162.608" y2="-12.3576" gradientUnits="userSpaceOnUse">
<stop stop-color="#1464C0"/>
<stop offset="1" stop-color="#14ADFF"/>
</linearGradient>
<clipPath id="clip0_2898_41267">
<rect width="140" height="36" fill="white" transform="translate(4 2)"/>
</clipPath>
</defs>
</svg>
