<svg width="120" height="147" viewBox="0 0 120 147" fill="none" xmlns="http://www.w3.org/2000/svg">
<rect x="0.5" y="0.5" width="119" height="146" rx="13.5" fill="white" stroke="#B3BDD9" stroke-dasharray="4 4"/>
<g opacity="0.5">
<path fill-rule="evenodd" clip-rule="evenodd" d="M67.5676 56.1558H51.3451C45.6976 56.1558 42.1558 60.157 42.1558 65.8195V81.0933C42.1558 86.7558 45.6826 90.757 51.3451 90.757H67.5583C73.2301 90.757 76.7551 86.7558 76.7551 81.0933V65.8195C76.7626 60.157 73.2358 56.1558 67.5676 56.1558Z" stroke="#B3BDD9" stroke-width="1.5" stroke-linecap="round" stroke-linejoin="round"/>
<path fill-rule="evenodd" clip-rule="evenodd" d="M57.0685 67.4717C57.0685 69.3842 55.5197 70.933 53.6072 70.933C51.6966 70.933 50.146 69.3842 50.146 67.4717C50.146 65.5592 51.6966 64.0105 53.6072 64.0105C55.5179 64.0124 57.0666 65.5611 57.0685 67.4717Z" stroke="#B3BDD9" stroke-width="1.5" stroke-linecap="round" stroke-linejoin="round"/>
<path d="M76.7631 79.0329C75.0325 77.2517 71.7044 73.6536 68.0856 73.6536C64.465 73.6536 62.3781 81.5904 58.8962 81.5904C55.4144 81.5904 52.2512 78.0017 49.4612 80.3023C46.6712 82.6011 44.0312 87.3017 44.0312 87.3017" stroke="#B3BDD9" stroke-width="1.5" stroke-linecap="round" stroke-linejoin="round"/>
</g>
</svg>
