<svg width="12" height="12" viewBox="0 0 12 12" fill="none" xmlns="http://www.w3.org/2000/svg">
<path d="M11.0261 8.95034L8.06113 5.98701L11.0245 3.02368C11.5945 2.45535 11.5945 1.53035 11.0245 0.962012C10.4545 0.388679 9.5328 0.390346 8.9628 0.960346L5.9978 3.92368L3.0328 0.957012C2.4628 0.387013 1.53946 0.390346 0.969463 0.957012C0.40113 1.52701 0.40113 2.45201 0.969463 3.02034L3.93613 5.98701L0.97613 8.94534C0.40613 9.51534 0.40613 10.4403 0.97613 11.007C1.26113 11.2937 1.6328 11.4353 2.00613 11.4353C2.38113 11.4353 2.7528 11.2937 3.0378 11.0087L5.9978 8.04868L8.96446 11.0137C9.24946 11.2987 9.62113 11.4403 9.99446 11.4403C10.3678 11.4403 10.7411 11.297 11.0261 11.0137C11.5961 10.4437 11.5961 9.52034 11.0261 8.95034Z" fill="#B3BDD9"/>
</svg>
