<svg width="40" height="40" viewBox="0 0 40 40" fill="none" xmlns="http://www.w3.org/2000/svg">
<path d="M27.2333 3.33301H12.7833C7.13325 3.33301 3.33325 7.29967 3.33325 13.1997V26.8163C3.33325 32.6997 7.13325 36.6663 12.7833 36.6663H27.2333C32.8833 36.6663 36.6666 32.6997 36.6666 26.8163V13.1997C36.6666 7.29967 32.8833 3.33301 27.2333 3.33301Z" fill="#F6F9FB"/>
<path d="M25.0261 22.9503L22.0611 19.987L25.0245 17.0237C25.5945 16.4553 25.5945 15.5303 25.0245 14.962C24.4545 14.3887 23.5328 14.3903 22.9628 14.9603L19.9978 17.9237L17.0328 14.957C16.4628 14.387 15.5395 14.3903 14.9695 14.957C14.4011 15.527 14.4011 16.452 14.9695 17.0203L17.9361 19.987L14.9761 22.9453C14.4061 23.5153 14.4061 24.4403 14.9761 25.007C15.2611 25.2937 15.6328 25.4353 16.0061 25.4353C16.3811 25.4353 16.7528 25.2937 17.0378 25.0087L19.9978 22.0487L22.9645 25.0137C23.2495 25.2987 23.6211 25.4403 23.9945 25.4403C24.3678 25.4403 24.7411 25.297 25.0261 25.0137C25.5961 24.4437 25.5961 23.5203 25.0261 22.9503Z" fill="#B3BDD9"/>
</svg>
