<svg width="26" height="26" viewBox="0 0 26 26" fill="none" xmlns="http://www.w3.org/2000/svg">
<rect opacity="0.1" width="26" height="26" rx="6" fill="#D10F5C"/>
<path d="M18.4936 11.1011C18.4936 11.1011 18.0863 16.1523 17.8501 18.2801C17.7376 19.2963 17.1098 19.8918 16.0816 19.9106C14.1248 19.9458 12.1658 19.9481 10.2098 19.9068C9.22059 19.8866 8.60334 19.2836 8.49309 18.2853C8.25534 16.1388 7.85034 11.1011 7.85034 11.1011" stroke="#D10F5C" stroke-width="1.5" stroke-linecap="round" stroke-linejoin="round"/>
<path d="M19.5311 8.67969H6.81262" stroke="#D10F5C" stroke-width="1.5" stroke-linecap="round" stroke-linejoin="round"/>
<path d="M17.0804 8.67974C16.4917 8.67974 15.9847 8.26349 15.8692 7.68674L15.6869 6.77474C15.5744 6.35399 15.1934 6.06299 14.7592 6.06299H11.5844C11.1502 6.06299 10.7692 6.35399 10.6567 6.77474L10.4744 7.68674C10.3589 8.26349 9.85193 8.67974 9.26318 8.67974" stroke="#D10F5C" stroke-width="1.5" stroke-linecap="round" stroke-linejoin="round"/>
</svg>
