<svg width="26" height="26" viewBox="0 0 26 26" fill="none" xmlns="http://www.w3.org/2000/svg">
<circle cx="13" cy="13" r="13" fill="#6EDF95"/>
<path fill-rule="evenodd" clip-rule="evenodd" d="M13 6C13.4832 6 13.875 6.39175 13.875 6.875V12.125H19.125C19.6082 12.125 20 12.5168 20 13C20 13.4832 19.6082 13.875 19.125 13.875H13.875V19.125C13.875 19.6082 13.4832 20 13 20C12.5168 20 12.125 19.6082 12.125 19.125V13.875H6.875C6.39175 13.875 6 13.4832 6 13C6 12.5168 6.39175 12.125 6.875 12.125H12.125V6.875C12.125 6.39175 12.5168 6 13 6Z" fill="white"/>
</svg>
